<svg width="98" height="33" viewBox="0 0 98 33" fill="none" xmlns="http://www.w3.org/2000/svg">
<path d="M89.6888 0.275001C89.2883 -0.105385 88.6554 -0.0891556 88.275 0.311251C87.8946 0.711657 87.9108 1.34461 88.3112 1.725L89.6888 0.275001ZM58.5 31.5L58.467 30.5005L58.5 31.5ZM1 20L1.09944 19.005C0.667718 18.9618 0.257432 19.202 0.083685 19.5995C-0.0900614 19.9971 0.0123755 20.4613 0.337289 20.7489L1 20ZM15.626 16.2798C16.0567 15.934 16.1255 15.3046 15.7798 14.874C15.434 14.4433 14.8046 14.3745 14.374 14.7202L15.626 16.2798ZM9.05065 32.3142C9.22418 32.8385 9.7899 33.1229 10.3142 32.9494C10.8385 32.7758 11.1229 32.2101 10.9494 31.6858L9.05065 32.3142ZM89 1C88.3112 1.725 88.311 1.72476 88.3109 1.72462C88.311 1.72472 88.3109 1.72469 88.3111 1.72489C88.3115 1.72528 88.3124 1.7261 88.3137 1.72735C88.3163 1.72984 88.3207 1.73403 88.3267 1.7399C88.3389 1.75163 88.3578 1.77004 88.3832 1.79494C88.4338 1.84474 88.5099 1.92043 88.6078 2.02033C88.8036 2.2202 89.0861 2.51656 89.4263 2.89604C90.1077 3.65609 91.0153 4.74387 91.9194 6.05272C93.7498 8.70263 95.4661 12.1165 95.4375 15.4915C95.41 18.7419 93.759 22.1872 88.3287 25.0029C82.8314 27.8534 73.5406 30.0022 58.467 30.5005L58.533 32.4995C73.7094 31.9978 83.3561 29.8341 89.2494 26.7784C95.2098 23.6878 97.4025 19.6331 97.4375 15.5085C97.4714 11.5085 95.4689 7.67237 93.565 4.91603C92.6019 3.52176 91.6384 2.36735 90.9155 1.56099C90.5535 1.15727 90.2506 0.839371 90.0365 0.620781C89.9294 0.511452 89.8444 0.426862 89.7852 0.368693C89.7557 0.339606 89.7325 0.317116 89.7163 0.301433C89.7082 0.293591 89.7018 0.28745 89.6972 0.283036C89.6949 0.280829 89.693 0.279054 89.6916 0.277714C89.6909 0.277044 89.6902 0.276364 89.6898 0.27603C89.6892 0.275461 89.6888 0.275001 89 1ZM58.467 30.5005C47.2892 30.8701 33.0311 28.0275 21.5022 25.0624C15.7517 23.5834 10.7056 22.0809 7.0976 20.9481C5.29387 20.3818 3.85028 19.9082 2.85858 19.5765C2.36274 19.4107 1.97993 19.2803 1.72161 19.1916C1.59245 19.1472 1.49441 19.1133 1.42894 19.0905C1.39621 19.0792 1.37162 19.0706 1.35534 19.0649C1.34721 19.062 1.34115 19.0599 1.33719 19.0585C1.33522 19.0578 1.33377 19.0573 1.33284 19.057C1.33238 19.0569 1.33209 19.0568 1.33186 19.0567C1.33169 19.0566 1.33166 19.0566 1 20C0.668337 20.9434 0.668573 20.9435 0.668941 20.9436C0.669241 20.9437 0.669742 20.9439 0.670341 20.9441C0.671539 20.9445 0.673266 20.9451 0.67552 20.9459C0.680027 20.9475 0.68664 20.9498 0.695337 20.9529C0.712729 20.9589 0.738456 20.9679 0.772336 20.9797C0.840097 21.0032 0.940476 21.038 1.07204 21.0832C1.33516 21.1735 1.72302 21.3056 2.22415 21.4732C3.22636 21.8084 4.6818 22.2859 6.49853 22.8563C10.1314 23.9968 15.212 25.5097 21.0041 26.9994C32.5607 29.9716 47.0526 32.879 58.533 32.4995L58.467 30.5005ZM1 20C0.337289 20.7489 0.337272 20.7489 0.337271 20.7489C0.337292 20.7489 0.337307 20.7489 0.337349 20.7489C0.337434 20.749 0.337582 20.7491 0.337795 20.7493C0.338219 20.7497 0.338899 20.7503 0.339831 20.7511C0.341695 20.7528 0.344567 20.7553 0.348421 20.7587C0.356129 20.7656 0.367767 20.7759 0.383127 20.7896C0.41385 20.817 0.459461 20.8576 0.518321 20.9104C0.636055 21.0159 0.806717 21.1696 1.01721 21.3612C1.43841 21.7446 2.01795 22.2789 2.65135 22.8821C3.93292 24.1026 5.38391 25.5576 6.21249 26.6163L7.78751 25.3837C6.85873 24.1969 5.30972 22.6519 4.03063 21.4338C3.3837 20.8177 2.79275 20.2729 2.36354 19.8822C2.14882 19.6868 1.9743 19.5296 1.85315 19.421C1.79256 19.3667 1.74531 19.3246 1.71302 19.2958C1.69688 19.2815 1.68448 19.2704 1.67603 19.2629C1.6718 19.2592 1.66856 19.2563 1.66633 19.2543C1.66522 19.2533 1.66436 19.2526 1.66375 19.252C1.66345 19.2518 1.66321 19.2516 1.66304 19.2514C1.66295 19.2513 1.66287 19.2513 1.66283 19.2512C1.66276 19.2512 1.66271 19.2511 1 20ZM6.21249 26.6163C7.01189 27.6378 7.7217 29.0447 8.24199 30.2409C8.49848 30.8306 8.70201 31.3529 8.8411 31.7269C8.91056 31.9136 8.96372 32.0628 8.99916 32.1642C9.01687 32.2149 9.03014 32.2536 9.03879 32.279C9.04311 32.2917 9.04627 32.3011 9.04826 32.3071C9.04925 32.31 9.04995 32.3121 9.05035 32.3133C9.05054 32.3139 9.05067 32.3143 9.05072 32.3144C9.05075 32.3145 9.05075 32.3145 9.05074 32.3145C9.05073 32.3145 9.05071 32.3144 9.05071 32.3144C9.05068 32.3143 9.05065 32.3142 10 32C10.9494 31.6858 10.9493 31.6857 10.9493 31.6855C10.9492 31.6855 10.9492 31.6853 10.9491 31.6852C10.9491 31.6849 10.949 31.6846 10.9488 31.6842C10.9486 31.6834 10.9482 31.6824 10.9478 31.6812C10.947 31.6788 10.9459 31.6755 10.9445 31.6713C10.9417 31.6628 10.9377 31.6509 10.9324 31.6356C10.922 31.6049 10.9069 31.5607 10.8872 31.5044C10.8478 31.3917 10.7902 31.23 10.7157 31.0297C10.5668 30.6295 10.3499 30.0728 10.076 29.4432C9.53566 28.2008 8.74547 26.6078 7.78751 25.3837L6.21249 26.6163ZM1 20C0.900563 20.995 0.900707 20.9951 0.90087 20.9951C0.900948 20.9951 0.90113 20.9951 0.901287 20.9951C0.901601 20.9951 0.901988 20.9952 0.902447 20.9952C0.903366 20.9953 0.904574 20.9954 0.906069 20.9956C0.909059 20.9959 0.913194 20.9963 0.918449 20.9968C0.928959 20.9978 0.943951 20.9992 0.963216 21.001C1.00174 21.0045 1.05738 21.0094 1.12847 21.0152C1.2706 21.0269 1.47474 21.0422 1.72751 21.0574C2.2323 21.0877 2.93477 21.1176 3.7268 21.1161C5.27608 21.1131 7.29785 20.9912 8.83634 20.4417L8.16366 18.5583C6.96848 18.9851 5.24025 19.1132 3.72294 19.1161C2.98169 19.1175 2.32172 19.0895 1.8474 19.061C1.6106 19.0467 1.42102 19.0325 1.29181 19.0219C1.22723 19.0166 1.1778 19.0122 1.14517 19.0093C1.12886 19.0078 1.11676 19.0066 1.10906 19.0059C1.10522 19.0055 1.10247 19.0053 1.10086 19.0051C1.10005 19.005 1.09953 19.005 1.09929 19.0049C1.09917 19.0049 1.09912 19.0049 1.09915 19.0049C1.09916 19.0049 1.09923 19.0049 1.09924 19.0049C1.09933 19.0049 1.09944 19.005 1 20ZM8.83634 20.4417C10.3326 19.9074 12.0472 18.8435 13.3398 17.9592C13.9971 17.5095 14.5662 17.0916 14.9712 16.7859C15.1739 16.6329 15.3361 16.5076 15.4483 16.42C15.5044 16.3762 15.548 16.3418 15.578 16.318C15.593 16.3061 15.6046 16.2969 15.6127 16.2905C15.6167 16.2873 15.6199 16.2847 15.6221 16.283C15.6232 16.2821 15.6241 16.2814 15.6247 16.2808C15.6251 16.2806 15.6253 16.2803 15.6256 16.2802C15.6257 16.2801 15.6258 16.28 15.6258 16.2799C15.6259 16.2799 15.626 16.2798 15 15.5C14.374 14.7202 14.374 14.7202 14.3741 14.7201C14.3741 14.7201 14.3741 14.7201 14.3741 14.7201C14.3741 14.7201 14.374 14.7202 14.3739 14.7203C14.3736 14.7205 14.3731 14.7209 14.3724 14.7214C14.371 14.7226 14.3687 14.7244 14.3655 14.7269C14.3592 14.732 14.3493 14.7399 14.336 14.7504C14.3095 14.7714 14.2696 14.8029 14.2174 14.8437C14.1129 14.9252 13.9595 15.0438 13.7664 15.1895C13.3798 15.4813 12.8364 15.8803 12.2105 16.3086C10.9365 17.1802 9.4011 18.1163 8.16366 18.5583L8.83634 20.4417Z" fill="#FEC51C"/>
</svg>
