<svg width="88" height="45" viewBox="0 0 88 45" fill="none" xmlns="http://www.w3.org/2000/svg">
<path d="M0.855425 0.510149C0.308943 0.589996 -0.0693403 1.09774 0.0105062 1.64422C0.0903527 2.1907 0.598093 2.56898 1.14457 2.48914L0.855425 0.510149ZM43 21.4991L43.9857 21.3308L43 21.4991ZM16.5 36.9996L17.4855 36.8297L16.5 36.9996ZM86.5 29.4996L86.6279 30.4914C86.9441 30.4506 87.2218 30.2616 87.3757 29.9825C87.5296 29.7034 87.5412 29.3676 87.407 29.0785L86.5 29.4996ZM80.907 15.078C80.6744 14.5771 80.0798 14.3596 79.5789 14.5921C79.078 14.8247 78.8604 15.4193 79.093 15.9202L80.907 15.078ZM70.8721 30.5074C70.3243 30.578 69.9376 31.0793 70.0082 31.6271C70.0789 32.1748 70.5802 32.5616 71.1279 32.4909L70.8721 30.5074ZM1 1.49964C1.14457 2.48914 1.14439 2.48916 1.14435 2.48917C1.14452 2.48914 1.14462 2.48913 1.14498 2.48908C1.14568 2.48898 1.14695 2.48879 1.14879 2.48853C1.15246 2.488 1.15839 2.48716 1.16654 2.48601C1.18284 2.48372 1.20803 2.48022 1.24185 2.47566C1.30948 2.46654 1.41158 2.45315 1.54598 2.43661C1.81482 2.40353 2.21278 2.35785 2.72259 2.30843C3.74248 2.20958 5.20852 2.09592 6.98284 2.03809C10.5364 1.92229 15.3026 2.03132 20.1883 2.92071C30.0012 4.70707 39.9454 9.54946 42.0143 21.6674L43.9857 21.3308C41.701 7.94875 30.6452 2.79143 20.5465 0.95305C15.4764 0.0300794 10.5589 -0.079507 6.9177 0.0391559C5.09464 0.098568 3.58555 0.215417 2.52965 0.317762C2.00156 0.368948 1.58646 0.416542 1.30171 0.451582C1.15933 0.469103 1.0495 0.48349 0.974406 0.493623C0.936857 0.49869 0.907986 0.502694 0.888067 0.505494C0.878107 0.506895 0.870384 0.507994 0.864933 0.508776C0.862207 0.509167 0.860049 0.509478 0.858463 0.509708C0.85767 0.509823 0.85691 0.509933 0.856514 0.509991C0.855898 0.51008 0.855425 0.510149 1 1.49964ZM42.0143 21.6674C43.6731 31.3834 38.008 38.4907 31.5799 41.4667C28.3575 42.9586 25.047 43.3604 22.4643 42.6165C19.95 41.8924 18.044 40.0693 17.4855 36.8297L15.5145 37.1696C16.206 41.1798 18.675 43.6064 21.9107 44.5384C25.078 45.4506 28.8925 44.9149 32.4201 43.2816C39.492 40.0075 45.8269 32.1148 43.9857 21.3308L42.0143 21.6674ZM17.4855 36.8297C17.1115 34.6611 17.7714 32.4238 19.3007 30.227C20.8335 28.0252 23.2033 25.9234 26.106 24.0957C31.918 20.4361 39.6665 17.9996 46.5 17.9996V15.9996C39.253 15.9996 31.1393 18.563 25.0404 22.4032C21.9876 24.3255 19.3897 26.5986 17.6593 29.0843C15.9253 31.5751 15.0263 34.3379 15.5145 37.1696L17.4855 36.8297ZM46.5 17.9996C59.8402 17.9996 69.6953 21.0866 76.1984 24.1541C79.4516 25.6886 81.8689 27.2197 83.4656 28.3602C84.264 28.9305 84.857 29.403 85.2467 29.7292C85.4415 29.8924 85.5854 30.0189 85.6787 30.1028C85.7254 30.1448 85.7594 30.1761 85.7807 30.1959C85.7914 30.2058 85.7989 30.2129 85.8033 30.217C85.8055 30.2191 85.8068 30.2204 85.8074 30.221C85.8077 30.2213 85.8079 30.2214 85.8078 30.2213C85.8077 30.2213 85.8075 30.2211 85.8075 30.221C85.8072 30.2208 85.8069 30.2205 86.5 29.4996C87.1931 28.7788 87.1927 28.7784 87.1922 28.778C87.192 28.7777 87.1915 28.7773 87.191 28.7768C87.1902 28.776 87.1891 28.7749 87.1878 28.7737C87.1852 28.7713 87.1818 28.7681 87.1777 28.7641C87.1693 28.7562 87.1578 28.7454 87.143 28.7316C87.1135 28.7042 87.0712 28.6653 87.0161 28.6157C86.9058 28.5165 86.744 28.3745 86.5307 28.1958C86.1039 27.8385 85.4704 27.3344 84.6281 26.7328C82.9436 25.5296 80.4234 23.9357 77.0516 22.3452C70.3047 19.1627 60.1598 15.9996 46.5 15.9996V17.9996ZM87.407 29.0785L80.907 15.078L79.093 15.9202L85.593 29.9207L87.407 29.0785ZM86.3721 28.5079L70.8721 30.5074L71.1279 32.4909L86.6279 30.4914L86.3721 28.5079Z" fill="#FEC51C"/>
</svg>
