<svg width="272" height="257" viewBox="0 0 272 257" fill="none" xmlns="http://www.w3.org/2000/svg">
<path d="M136 176.999H233C254.539 176.999 271.743 195.446 260.557 213.853C248.044 234.444 221.847 255.999 167 256C156 256 150.28 255.999 136 255.999C135.999 255.999 135.997 255.999 135.996 255.999C128.786 256 112.464 256.42 106 256C50.601 256 24.1553 234.421 11.5311 213.819C0.277252 195.454 17.4611 176.999 39.0002 176.999L136 176.999Z" fill="#FED047"/>
<rect x="2.5" y="131" width="263" height="31" rx="11" fill="#FED047"/>
<path fill-rule="evenodd" clip-rule="evenodd" d="M5.05798 78.8208C16.9281 44.7863 48.7451 0 134 0C217.998 0 250.116 44.4396 262.397 78.4244C269.717 98.6814 252.539 116.497 231 116.497H134H36.5012C15.1581 116.497 -1.97061 98.9734 5.05798 78.8208ZM68.4998 80C76.784 80 83.4998 73.2843 83.4998 65C83.4998 56.7157 76.784 50 68.4998 50C60.2155 50 53.4998 56.7157 53.4998 65C53.4998 73.2843 60.2155 80 68.4998 80ZM213.5 65C213.5 73.2843 206.784 80 198.5 80C190.215 80 183.5 73.2843 183.5 65C183.5 56.7157 190.215 50 198.5 50C206.784 50 213.5 56.7157 213.5 65ZM133.5 65C141.784 65 148.5 58.2843 148.5 50C148.5 41.7157 141.784 35 133.5 35C125.215 35 118.5 41.7157 118.5 50C118.5 58.2843 125.215 65 133.5 65Z" fill="#FED047"/>
</svg>
